<svg width="22" height="24" viewBox="0 0 22 24" fill="none" xmlns="http://www.w3.org/2000/svg">
<path d="M0 5.41935H21.6774V20.9032C21.6774 21.7245 21.3512 22.5122 20.7704 23.093C20.1896 23.6737 19.402 24 18.5806 24H3.09677C2.27546 24 1.48778 23.6737 0.907024 23.093C0.326266 22.5122 0 21.7245 0 20.9032V5.41935ZM10.8387 1.54839C9.81207 1.54839 8.82747 1.95622 8.10152 2.68217C7.37558 3.40811 6.96774 4.39271 6.96774 5.41935H5.41935C5.41935 3.98205 5.99032 2.60362 7.00665 1.58729C8.02297 0.570966 9.40141 0 10.8387 0C12.276 0 13.6544 0.570966 14.6708 1.58729C15.6871 2.60362 16.2581 3.98205 16.2581 5.41935H14.7097C14.7097 4.39271 14.3018 3.40811 13.5759 2.68217C12.85 1.95622 11.8654 1.54839 10.8387 1.54839Z" fill="black"/>
</svg>
