<svg width="20" height="20" viewBox="0 0 20 20" fill="none" xmlns="http://www.w3.org/2000/svg">
<path d="M10.0026 10.0013C12.3038 10.0013 14.1693 8.13582 14.1693 5.83464C14.1693 3.53345 12.3038 1.66797 10.0026 1.66797C7.70142 1.66797 5.83594 3.53345 5.83594 5.83464C5.83594 8.13582 7.70142 10.0013 10.0026 10.0013Z" stroke="black" stroke-width="2"/>
<path d="M14.168 18.3346H4.38969C4.15334 18.3347 3.91968 18.2845 3.70422 18.1873C3.48877 18.0902 3.29644 17.9483 3.14 17.7711C2.98356 17.594 2.86659 17.3856 2.79686 17.1597C2.72712 16.9339 2.70621 16.6958 2.73552 16.4613L3.06052 13.858C3.1361 13.2532 3.43003 12.6968 3.88705 12.2935C4.34406 11.8902 4.93267 11.6677 5.54219 11.668H5.83469" stroke="black" stroke-width="2" stroke-linecap="round" stroke-linejoin="round"/>
<path d="M15.8359 10.8359V15.8359" stroke="black" stroke-width="2" stroke-linecap="round" stroke-linejoin="round"/>
<path d="M13.3359 13.3359H18.3359" stroke="black" stroke-width="2" stroke-linecap="round" stroke-linejoin="round"/>
</svg>
