<svg width="29" height="29" viewBox="0 0 29 29" fill="none" xmlns="http://www.w3.org/2000/svg">
<path d="M23.7063 5.97221L23.7059 5.97182C23.0806 5.35885 22.3433 4.87174 21.5342 4.53696L21.5336 4.53669C20.6944 4.18808 19.7943 4.00965 18.8855 4.01174L18.8844 4.01174C17.608 4.01174 16.3637 4.36119 15.2828 5.02061L15.2827 5.02062C15.0241 5.17837 14.7788 5.35141 14.5466 5.53975L14.2316 5.79523L13.9167 5.53975C13.6845 5.35141 13.4392 5.17837 13.1806 5.02062L13.1805 5.02061C12.0996 4.36119 10.8553 4.01174 9.57892 4.01174C8.65895 4.01174 7.7698 4.18773 6.9297 4.5367L6.92916 4.53692C6.11714 4.87311 5.3858 5.35634 4.75724 5.97197L4.75656 5.97264C4.13196 6.58205 3.63302 7.3081 3.288 8.10964L23.7063 5.97221ZM23.7063 5.97221C24.3304 6.5826 24.8294 7.30883 25.1756 8.11023C25.5342 8.94395 25.717 9.82767 25.7144 10.7377V10.7391C25.7144 11.5946 25.5398 12.4968 25.1842 13.4265L25.1838 13.4277M23.7063 5.97221L25.1838 13.4277M8.20072 19.9685L8.20077 19.9686C9.47079 21.1414 10.7366 22.1346 11.6992 22.8433C12.1801 23.1973 12.5844 23.4796 12.8743 23.6771C13.0193 23.7758 13.1356 23.8532 13.2184 23.9076C13.2599 23.9348 13.2928 23.9562 13.3166 23.9716L13.3451 23.9898L13.3534 23.9951C13.3556 23.9965 13.3564 23.9969 13.3562 23.9968L13.3641 24.0017L13.3641 24.0018L14.0206 24.4229C14.0207 24.4229 14.0208 24.423 14.0209 24.423C14.148 24.504 14.3125 24.504 14.4397 24.423C14.4397 24.423 14.4398 24.4229 14.4399 24.4229L15.0965 24.0018L15.0966 24.0017C15.1949 23.9387 17.7138 22.3172 20.2599 19.9684C21.7929 18.5531 23.0158 17.1676 23.8985 15.8516L8.20072 19.9685ZM8.20072 19.9685C6.66769 18.5532 5.44476 17.1676 4.56198 15.8516M8.20072 19.9685L4.56198 15.8516M25.1838 13.4277C24.8891 14.2039 24.4562 15.0191 23.8987 15.8513L25.1838 13.4277ZM14.2316 22.6498L13.9619 23.0708L14.2316 23.2436L14.5014 23.0708L14.2316 22.6498ZM14.2316 22.6498C14.5014 23.0708 14.5015 23.0707 14.5017 23.0706L14.5022 23.0703L14.5039 23.0692L14.5099 23.0653L14.5324 23.0507C14.552 23.038 14.5807 23.0192 14.6179 22.9947C14.6922 22.9457 14.8003 22.8737 14.9375 22.7802C15.2119 22.5933 15.6026 22.3209 16.071 21.9766C17.007 21.2888 18.2571 20.3113 19.5093 19.1551C20.7595 18.0009 22.0246 16.6567 22.9804 15.234C23.9319 13.8176 24.6086 12.2766 24.6086 10.7391C24.6086 7.62629 22.0363 5.12031 18.8844 5.12031C16.9702 5.12031 15.2718 6.04299 14.2316 7.46323C13.1915 6.04299 11.4931 5.12031 9.57892 5.12031C6.42703 5.12031 3.85466 7.62629 3.85466 10.7391C3.85466 12.2766 4.53138 13.8176 5.48291 15.234C6.43873 16.6567 7.70383 18.0009 8.95397 19.1551C10.2062 20.3113 11.4563 21.2888 12.3923 21.9766C12.8607 22.3209 13.2514 22.5933 13.5258 22.7802C13.663 22.8737 13.7711 22.9457 13.8454 22.9947C13.8826 23.0192 13.9113 23.038 13.9309 23.0507L13.9534 23.0653L13.9594 23.0692L13.9611 23.0703L13.9616 23.0706C13.9618 23.0707 13.9619 23.0708 14.2316 22.6498ZM4.56198 15.8516C4.00507 15.0202 3.57435 14.2045 3.27632 13.4265L4.56198 15.8516ZM2.74609 10.7391C2.74609 9.82792 2.92915 8.94354 3.28799 8.10967L3.27622 13.4263C2.92073 12.4967 2.74609 11.5945 2.74609 10.7391Z" fill="black" stroke="black"/>
</svg>
