<svg width="35" height="35" viewBox="0 0 35 35" fill="none" xmlns="http://www.w3.org/2000/svg">
<path d="M23.88 4.73936C25.5707 4.7444 27.1907 5.41827 28.3862 6.61379C29.5817 7.8093 30.2556 9.42932 30.2606 11.12V23.88C30.2556 25.5707 29.5817 27.1907 28.3862 28.3862C27.1907 29.5817 25.5707 30.2556 23.88 30.2606H11.12C9.42932 30.2556 7.8093 29.5817 6.61379 28.3862C5.41827 27.1907 4.7444 25.5707 4.73936 23.88V11.12C4.7444 9.42932 5.41827 7.8093 6.61379 6.61379C7.8093 5.41827 9.42932 4.7444 11.12 4.73936H23.88ZM23.88 2.1875H11.12C6.20703 2.1875 2.1875 6.20703 2.1875 11.12V23.88C2.1875 28.793 6.20703 32.8125 11.12 32.8125H23.88C28.793 32.8125 32.8125 28.793 32.8125 23.88V11.12C32.8125 6.20703 28.793 2.1875 23.88 2.1875Z" fill="black" fill-opacity="0.8"/>
<path d="M25.793 11.1211C25.4144 11.1211 25.0443 11.0088 24.7296 10.7985C24.4148 10.5882 24.1695 10.2893 24.0246 9.93951C23.8797 9.58976 23.8418 9.20491 23.9157 8.83362C23.9895 8.46232 24.1718 8.12127 24.4395 7.85359C24.7072 7.5859 25.0483 7.4036 25.4196 7.32975C25.7908 7.25589 26.1757 7.2938 26.5254 7.43867C26.8752 7.58354 27.1741 7.82887 27.3845 8.14364C27.5948 8.4584 27.707 8.82847 27.707 9.20703C27.7076 9.45854 27.6584 9.70768 27.5624 9.94015C27.4664 10.1726 27.3255 10.3838 27.1476 10.5617C26.9698 10.7395 26.7586 10.8805 26.5261 10.9765C26.2936 11.0725 26.0445 11.1216 25.793 11.1211Z" fill="black" fill-opacity="0.8"/>
<path d="M17.5 12.3956C18.5096 12.3956 19.4964 12.695 20.3359 13.2559C21.1753 13.8167 21.8295 14.6139 22.2159 15.5466C22.6022 16.4793 22.7033 17.5057 22.5063 18.4958C22.3094 19.486 21.8232 20.3955 21.1094 21.1094C20.3955 21.8232 19.486 22.3094 18.4958 22.5063C17.5057 22.7033 16.4793 22.6022 15.5466 22.2158C14.6139 21.8295 13.8167 21.1753 13.2559 20.3358C12.695 19.4964 12.3956 18.5096 12.3956 17.5C12.3971 16.1467 12.9353 14.8492 13.8923 13.8922C14.8492 12.9353 16.1467 12.3971 17.5 12.3956ZM17.5 9.84375C15.9857 9.84375 14.5055 10.2928 13.2464 11.1341C11.9874 11.9753 11.006 13.1711 10.4266 14.5701C9.84707 15.9691 9.69545 17.5085 9.99087 18.9937C10.2863 20.4788 11.0155 21.843 12.0862 22.9138C13.157 23.9845 14.5212 24.7137 16.0063 25.0091C17.4915 25.3046 19.0309 25.1529 20.4299 24.5735C21.8289 23.994 23.0247 23.0126 23.8659 21.7536C24.7072 20.4945 25.1563 19.0143 25.1563 17.5C25.1563 15.4694 24.3496 13.522 22.9138 12.0862C21.478 10.6504 19.5306 9.84375 17.5 9.84375Z" fill="black" fill-opacity="0.8"/>
</svg>
