<svg width="36" height="36" viewBox="0 0 36 36" fill="none" xmlns="http://www.w3.org/2000/svg">
<path d="M24.5623 4.87477C26.3013 4.87996 27.9676 5.57308 29.1972 6.80275C30.4269 8.03242 31.12 9.69872 31.1252 11.4377V24.5623C31.12 26.3013 30.4269 27.9676 29.1972 29.1972C27.9676 30.4269 26.3013 31.12 24.5623 31.1252H11.4377C9.69872 31.12 8.03242 30.4269 6.80275 29.1972C5.57308 27.9676 4.87996 26.3013 4.87477 24.5623V11.4377C4.87996 9.69872 5.57308 8.03242 6.80275 6.80275C8.03242 5.57308 9.69872 4.87996 11.4377 4.87477H24.5623ZM24.5623 2.25H11.4377C6.38437 2.25 2.25 6.38437 2.25 11.4377V24.5623C2.25 29.6156 6.38437 33.75 11.4377 33.75H24.5623C29.6156 33.75 33.75 29.6156 33.75 24.5623V11.4377C33.75 6.38437 29.6156 2.25 24.5623 2.25Z" fill="white"/>
<path d="M26.5313 11.4375C26.1419 11.4375 25.7612 11.322 25.4375 11.1057C25.1137 10.8894 24.8614 10.5819 24.7124 10.2222C24.5634 9.86242 24.5244 9.46657 24.6003 9.08467C24.6763 8.70277 24.8638 8.35197 25.1391 8.07663C25.4145 7.8013 25.7653 7.61379 26.1472 7.53783C26.5291 7.46187 26.9249 7.50085 27.2847 7.64986C27.6444 7.79887 27.9519 8.05121 28.1682 8.37497C28.3845 8.69873 28.5 9.07937 28.5 9.46875C28.5006 9.72745 28.45 9.98371 28.3513 10.2228C28.2525 10.4619 28.1075 10.6792 27.9246 10.8621C27.7417 11.045 27.5244 11.19 27.2853 11.2888C27.0462 11.3875 26.7899 11.4381 26.5313 11.4375Z" fill="white"/>
<path d="M18 12.7498C19.0384 12.7498 20.0535 13.0577 20.9169 13.6346C21.7803 14.2115 22.4532 15.0315 22.8506 15.9908C23.248 16.9502 23.3519 18.0058 23.1494 19.0243C22.9468 20.0427 22.4467 20.9782 21.7125 21.7125C20.9782 22.4467 20.0427 22.9468 19.0243 23.1494C18.0058 23.3519 16.9502 23.248 15.9908 22.8506C15.0315 22.4532 14.2115 21.7803 13.6346 20.9169C13.0577 20.0535 12.7498 19.0384 12.7498 18C12.7513 16.608 13.3049 15.2735 14.2892 14.2892C15.2735 13.3049 16.608 12.7513 18 12.7498ZM18 10.125C16.4425 10.125 14.9199 10.5869 13.6249 11.4522C12.3299 12.3175 11.3205 13.5474 10.7245 14.9864C10.1284 16.4253 9.97246 18.0087 10.2763 19.5363C10.5802 21.0639 11.3302 22.4671 12.4315 23.5685C13.5329 24.6698 14.9361 25.4198 16.4637 25.7237C17.9913 26.0275 19.5747 25.8716 21.0136 25.2756C22.4526 24.6795 23.6825 23.6702 24.5478 22.3751C25.4131 21.0801 25.875 19.5575 25.875 18C25.875 15.9114 25.0453 13.9084 23.5685 12.4315C22.0916 10.9547 20.0886 10.125 18 10.125Z" fill="white"/>
</svg>
