<svg width="199" height="40" viewBox="0 0 199 40" fill="none" xmlns="http://www.w3.org/2000/svg">
<path d="M35.5164 10.6445C39.0645 10.6445 41.8749 11.6809 43.9475 13.7535C46.0202 15.7911 47.0565 18.8649 47.0565 22.9751V39.0998H40.4697V23.8183C40.4697 21.3592 39.9252 19.5148 38.8361 18.2853C37.7471 17.0206 36.1838 16.3883 34.1463 16.3883C31.9331 16.3883 30.159 17.126 28.8241 18.6015C27.4892 20.0418 26.8217 22.1145 26.8217 24.8195V39.0998H20.2348V23.8183C20.2348 21.3592 19.6903 19.5148 18.6013 18.2853C17.5123 17.0206 15.949 16.3883 13.9115 16.3883C11.6631 16.3883 9.87151 17.1084 8.53657 18.5488C7.23677 19.9891 6.58686 22.0793 6.58686 24.8195V39.0998H0V10.9607H6.27069V14.544C7.32459 13.2793 8.64196 12.3132 10.2228 11.6457C11.8037 10.9783 13.5602 10.6445 15.4923 10.6445C17.6001 10.6445 19.462 11.0485 21.078 11.8565C22.7291 12.6294 24.0289 13.7887 24.9774 15.3344C26.1367 13.8589 27.6297 12.7172 29.4564 11.9092C31.2832 11.0661 33.3032 10.6445 35.5164 10.6445Z" fill="#161616"/>
<path d="M66.7587 32.5997C69.6259 31.5414 71.6627 29.7041 72.8688 27.0873L77.5363 29.6898C76.9058 31.5327 75.8179 33.1508 74.2729 34.5451C72.7275 35.9389 70.8181 37.0554 68.5441 37.8945C65.6437 38.9648 62.8765 39.3308 60.2429 38.9919C57.6089 38.6534 55.3053 37.6874 53.3318 36.0937C51.3792 34.4554 49.9224 32.3344 48.9618 29.7308C48.0133 27.1601 47.7384 24.6402 48.138 22.1709C48.5581 19.6569 49.5773 17.446 51.1951 15.5385C52.8458 13.6188 54.9726 12.1785 57.5763 11.2178C60.0482 10.3056 62.4901 10.0224 64.902 10.3681C67.3344 10.6687 69.515 11.6053 71.4431 13.1779C73.3595 14.7175 74.8101 16.8221 75.7952 19.4917L57.0351 30.908C58.2207 32.1928 59.6515 32.9756 61.3275 33.2555C63.0039 33.5358 64.8142 33.317 66.7587 32.5997ZM59.4008 16.1614C57.1265 17.0005 55.5549 18.4232 54.6847 20.4292C53.8478 22.423 53.8917 24.6724 54.8157 27.1773L54.834 27.2267L68.7059 18.85C67.6813 17.3932 66.3277 16.4137 64.6444 15.9114C62.9944 15.397 61.2463 15.4803 59.4008 16.1614Z" fill="#D71B1B"/>
<path d="M84.5812 15.0709C86.4783 12.12 89.8156 10.6445 94.5933 10.6445V16.9152C94.0312 16.8098 93.5218 16.7571 93.0651 16.7571C90.5006 16.7571 88.4982 17.5124 87.0579 19.023C85.6176 20.4985 84.8974 22.6414 84.8974 25.4518V39.0998H78.3105V10.9607H84.5812V15.0709Z" fill="#161616"/>
<path d="M109.884 39.4686C106.968 39.4686 104.351 38.8539 102.032 37.6243C99.7135 36.3948 97.9043 34.691 96.6045 32.5129C95.3047 30.2997 94.6548 27.8055 94.6548 25.0302C94.6548 22.255 95.3047 19.7783 96.6045 17.6003C97.9043 15.4222 99.6959 13.7184 101.979 12.4889C104.298 11.2593 106.933 10.6445 109.884 10.6445C112.659 10.6445 115.083 11.2066 117.156 12.3308C119.263 13.4549 120.844 15.0709 121.898 17.1787L116.839 20.1296C116.031 18.8298 115.013 17.8637 113.783 17.2314C112.589 16.5639 111.271 16.2302 109.831 16.2302C107.372 16.2302 105.334 17.0382 103.718 18.6542C102.102 20.235 101.294 22.3604 101.294 25.0302C101.294 27.7001 102.085 29.843 103.666 31.459C105.282 33.0399 107.337 33.8303 109.831 33.8303C111.271 33.8303 112.589 33.5141 113.783 32.8818C115.013 32.2143 116.031 31.2307 116.839 29.9309L121.898 32.8818C120.809 34.9896 119.211 36.6231 117.103 37.7824C115.03 38.9066 112.624 39.4686 109.884 39.4686Z" fill="#161616"/>
<path d="M139.287 10.6444C142.835 10.6444 145.681 11.6807 147.824 13.7534C149.967 15.826 151.038 18.8999 151.038 22.975V39.0996H144.451V23.8181C144.451 21.359 143.872 19.5147 142.713 18.2851C141.553 17.0205 139.902 16.3881 137.759 16.3881C135.335 16.3881 133.421 17.1258 132.015 18.6013C130.61 20.0416 129.908 22.1319 129.908 24.872V39.0996H123.321V0H129.908V14.2276C130.997 13.0683 132.332 12.1901 133.912 11.5929C135.528 10.9605 137.32 10.6444 139.287 10.6444Z" fill="#161616"/>
<path d="M158.5 15.0211C160.397 12.0702 163.735 10.5947 168.512 10.5947V16.8654C167.95 16.76 167.441 16.7073 166.984 16.7073C164.42 16.7073 162.417 17.4626 160.977 18.9732C159.537 20.4487 158.816 22.5916 158.816 25.402V39.05H152.229V10.9109H158.5V15.0211Z" fill="#161616"/>
<path d="M183.173 39.4188C180.328 39.4188 177.763 38.8041 175.48 37.5745C173.196 36.345 171.405 34.6412 170.105 32.4631C168.84 30.2499 168.208 27.7557 168.208 24.9804C168.208 22.2052 168.84 19.7285 170.105 17.5505C171.405 15.3724 173.196 13.6686 175.48 12.439C177.763 11.2095 180.328 10.5947 183.173 10.5947C186.054 10.5947 188.636 11.2095 190.92 12.439C193.203 13.6686 194.977 15.3724 196.242 17.5505C197.542 19.7285 198.191 22.2052 198.191 24.9804C198.191 27.7557 197.542 30.2499 196.242 32.4631C194.977 34.6412 193.203 36.345 190.92 37.5745C188.636 38.8041 186.054 39.4188 183.173 39.4188ZM183.173 33.7805C185.597 33.7805 187.6 32.9725 189.181 31.3565C190.761 29.7405 191.552 27.6152 191.552 24.9804C191.552 22.3457 190.761 20.2203 189.181 18.6044C187.6 16.9884 185.597 16.1804 183.173 16.1804C180.749 16.1804 178.747 16.9884 177.166 18.6044C175.62 20.2203 174.848 22.3457 174.848 24.9804C174.848 27.6152 175.62 29.7405 177.166 31.3565C178.747 32.9725 180.749 33.7805 183.173 33.7805Z" fill="#181818"/>
</svg>
