<svg width="137" height="27" viewBox="0 0 137 27" fill="none" xmlns="http://www.w3.org/2000/svg">
<path d="M24.5507 7.28125C27.0034 7.28125 28.9461 7.9902 30.3788 9.40809C31.8115 10.8019 32.5279 12.9048 32.5279 15.7165V26.7472H27.9747V16.2933C27.9747 14.611 27.5983 13.3493 26.8455 12.5082C26.0927 11.6431 25.0121 11.2105 23.6037 11.2105C22.0738 11.2105 20.8475 11.7152 19.9247 12.7245C19.0019 13.7098 18.5405 15.1277 18.5405 16.9782V26.7472H13.9874V16.2933C13.9874 14.611 13.611 13.3493 12.8582 12.5082C12.1054 11.6431 11.0248 11.2105 9.61631 11.2105C8.06216 11.2105 6.82369 11.7031 5.90092 12.6885C5.00242 13.6738 4.55318 15.1037 4.55318 16.9782V26.7472H0V7.49754H4.33462V9.94881C5.06313 9.08365 5.97377 8.42277 7.06653 7.96616C8.15929 7.50955 9.37347 7.28125 10.7091 7.28125C12.1661 7.28125 13.4531 7.55762 14.5702 8.11036C15.7115 8.63906 16.61 9.43212 17.2656 10.4895C18.067 9.48018 19.0991 8.69914 20.3618 8.1464C21.6245 7.56964 23.0209 7.28125 24.5507 7.28125Z" fill="white"/>
<path d="M46.1467 22.302C48.1286 21.5781 49.5365 20.3211 50.3703 18.531L53.5967 20.3114C53.1608 21.5721 52.4088 22.679 51.3408 23.6328C50.2726 24.5863 48.9527 25.3501 47.3808 25.9241C45.3759 26.6564 43.4631 26.9067 41.6426 26.6749C39.8218 26.4433 38.2295 25.7824 36.8653 24.6922C35.5155 23.5715 34.5085 22.1206 33.8445 20.3394C33.1889 18.5808 32.9989 16.857 33.2751 15.1678C33.5655 13.448 34.27 11.9355 35.3883 10.6306C36.5294 9.31734 37.9995 8.33208 39.7993 7.67483C41.508 7.05084 43.196 6.85709 44.8632 7.0936C46.5446 7.29925 48.0519 7.93996 49.3847 9.01577C50.7095 10.069 51.7122 11.5087 52.3931 13.335L39.4252 21.1447C40.2448 22.0237 41.2338 22.5591 42.3923 22.7506C43.5511 22.9424 44.8025 22.7927 46.1467 22.302ZM41.0605 11.0567C39.4884 11.6308 38.402 12.604 37.8005 13.9763C37.222 15.3403 37.2523 16.8791 37.891 18.5926L37.9037 18.6264L47.4926 12.896C46.7844 11.8994 45.8487 11.2293 44.6851 10.8857C43.5445 10.5338 42.3362 10.5908 41.0605 11.0567Z" fill="#D71B1B"/>
<path d="M58.4674 10.3093C59.7788 8.2906 62.0857 7.28125 65.3883 7.28125V11.571C64.9997 11.4989 64.6476 11.4628 64.3319 11.4628C62.5592 11.4628 61.1751 11.9795 60.1794 13.0129C59.1838 14.0222 58.686 15.4882 58.686 17.4108V26.7472H54.1328V7.49754H58.4674V10.3093Z" fill="white"/>
<path d="M75.9566 26.9996C73.9411 26.9996 72.132 26.579 70.5292 25.7379C68.9265 24.8968 67.6759 23.7312 66.7774 22.2412C65.8789 20.7272 65.4297 19.0209 65.4297 17.1224C65.4297 15.2238 65.8789 13.5296 66.7774 12.0396C67.6759 10.5496 68.9144 9.38406 70.4928 8.54293C72.0955 7.70181 73.9168 7.28125 75.9566 7.28125C77.875 7.28125 79.5506 7.66576 80.9833 8.43479C82.4403 9.20382 83.5331 10.3093 84.2616 11.7512L80.7648 13.7699C80.2063 12.8807 79.502 12.2198 78.6521 11.7873C77.8265 11.3307 76.9158 11.1023 75.9202 11.1023C74.2204 11.1023 72.8119 11.6551 71.6949 12.7606C70.5778 13.842 70.0193 15.2959 70.0193 17.1224C70.0193 18.9488 70.5657 20.4148 71.6584 21.5203C72.7755 22.6017 74.1961 23.1424 75.9202 23.1424C76.9158 23.1424 77.8265 22.9261 78.6521 22.4936C79.502 22.0369 80.2063 21.364 80.7648 20.4749L84.2616 22.4936C83.5088 23.9355 82.4039 25.053 80.9469 25.846C79.5142 26.6151 77.8508 26.9996 75.9566 26.9996Z" fill="white"/>
<path d="M96.283 7.28172C98.7356 7.28172 100.703 7.99066 102.184 9.40855C103.665 10.8264 104.406 12.9293 104.406 15.717V26.7477H99.8527V16.2937C99.8527 14.6115 99.452 13.3498 98.6506 12.5087C97.8493 11.6435 96.708 11.211 95.2267 11.211C93.5511 11.211 92.2276 11.7156 91.2563 12.725C90.2849 13.7103 89.7993 15.1402 89.7993 17.0147V26.7477H85.2461V0H89.7993V9.73299C90.5521 8.93993 91.4748 8.33913 92.5676 7.93058C93.6846 7.498 94.9231 7.28172 96.283 7.28172Z" fill="white"/>
<path d="M109.565 10.2741C110.876 8.25544 113.183 7.24609 116.486 7.24609V11.5358C116.097 11.4637 115.745 11.4277 115.43 11.4277C113.657 11.4277 112.273 11.9444 111.277 12.9777C110.281 13.9871 109.784 15.453 109.784 17.3756V26.7121H105.23V7.46238H109.565V10.2741Z" fill="white"/>
<path d="M126.618 26.9644C124.651 26.9644 122.879 26.5438 121.3 25.7027C119.722 24.8616 118.483 23.696 117.585 22.2061C116.711 20.692 116.273 18.9858 116.273 17.0872C116.273 15.1887 116.711 13.4944 117.585 12.0044C118.483 10.5145 119.722 9.3489 121.3 8.50778C122.879 7.66666 124.651 7.24609 126.618 7.24609C128.61 7.24609 130.394 7.66666 131.973 8.50778C133.551 9.3489 134.778 10.5145 135.652 12.0044C136.55 13.4944 136.999 15.1887 136.999 17.0872C136.999 18.9858 136.55 20.692 135.652 22.2061C134.778 23.696 133.551 24.8616 131.973 25.7027C130.394 26.5438 128.61 26.9644 126.618 26.9644ZM126.618 23.1073C128.294 23.1073 129.678 22.5545 130.771 21.449C131.864 20.3436 132.41 18.8896 132.41 17.0872C132.41 15.2848 131.864 13.8309 130.771 12.7254C129.678 11.6199 128.294 11.0672 126.618 11.0672C124.943 11.0672 123.559 11.6199 122.466 12.7254C121.397 13.8309 120.863 15.2848 120.863 17.0872C120.863 18.8896 121.397 20.3436 122.466 21.449C123.559 22.5545 124.943 23.1073 126.618 23.1073Z" fill="white"/>
</svg>
