<svg width="33" height="27" viewBox="0 0 33 27" fill="none" xmlns="http://www.w3.org/2000/svg">
<path d="M33 3.19922C31.7621 3.74931 30.4524 4.11172 29.1122 4.275C30.5206 3.43152 31.5798 2.0915 32.0911 0.50626C30.7595 1.30261 29.3051 1.86137 27.7901 2.1586C27.1522 1.47483 26.385 0.930879 25.5351 0.5598C24.6852 0.18872 23.7704 -0.00173483 22.8463 1.1907e-05C19.1049 1.1907e-05 16.0772 3.05156 16.0772 6.81327C16.0745 7.33651 16.1332 7.85819 16.2518 8.36717C13.569 8.23855 10.9419 7.5386 8.53874 6.31213C6.13555 5.08565 4.00915 3.35964 2.29556 1.24454C1.6944 2.28103 1.37647 3.46363 1.375 4.66875C1.375 7.03124 2.58019 9.11952 4.4 10.3429C3.32181 10.3168 2.26572 10.0249 1.32138 9.49217V9.57654C1.32138 12.8812 3.65888 15.6304 6.75263 16.2562C6.17085 16.4148 5.57134 16.4952 4.96925 16.4953C4.54202 16.496 4.11577 16.4536 3.69669 16.3687C4.55675 19.0757 7.05994 21.0445 10.0251 21.1007C7.6157 22.9998 4.65755 24.0262 1.61563 24.0187C1.07567 24.0179 0.536226 23.985 0 23.9203C3.09456 25.9412 6.69174 27.0102 10.3634 26.9999C22.8319 26.9999 29.6436 16.6148 29.6436 7.6078C29.6436 7.31249 29.6361 7.01718 29.6223 6.7289C30.9444 5.76707 32.0882 4.57179 33 3.19922Z" fill="black" fill-opacity="0.8"/>
</svg>
